# xmcd CD database file
#
# Track frame offsets:
#	150
#	8732
#	21843
#	34193
#	45907
#	58408
#	70539
#	83433
#	93068
#	109936
#	123554
#	132862
#	144000
#	157591
#
# Disc length: 2248 seconds
#
# Revision: 0
# Processed by: cddbd v1.5.2PL0 Copyright (c) Steve Scherf et al.
# Submitted via: CDex 1.70beta2
#
DISCID=9e08c60e
DTITLE=Smith, R. Harlan - Cdn. - AB - Uptown Country
DYEAR=2008
DGENRE=Country
TTITLE0=Don't Fight and Feelings of Love
TTITLE1=Almost Persuaded
TTITLE2=Bad Bad Leroy Brown
TTITLE3=Behind Closed Doors
TTITLE4=I'm Just A Country Boy
TTITLE5=I Can't Touch the Sun
TTITLE6=Destiny's Child
TTITLE7=Dock of the Bay
TTITLE8=Games People Play
TTITLE9=Good Hearted Woman wt. Larry Gustafson
TTITLE10=Gotta Have Tenderness
TTITLE11=Heaven Is My Woman's Love
TTITLE12=HelpMe Make It Through the Night
TTITLE13=All His Children
EXTD=YEAR: 2008
EXTT0=
EXTT1=
EXTT2=
EXTT3=
EXTT4=
EXTT5=
EXTT6=
EXTT7=
EXTT8=
EXTT9=
EXTT10=
EXTT11=
EXTT12=
EXTT13=
PLAYORDER=
